<svg width="51" height="350" viewBox="0 0 51 350" fill="none" xmlns="http://www.w3.org/2000/svg">
<path d="M0 25.5C0 11.4167 11.4167 0 25.5 0C39.5833 0 51 11.4167 51 25.5V324.5C51 338.583 39.5833 350 25.5 350C11.4167 350 0 338.583 0 324.5V25.5Z" fill="#B70000"/>
<path d="M0 0H27V350H0V0Z" fill="#B70000"/>
<path d="M27.4688 51.2188C27.4688 51.0115 27.5511 50.8128 27.6976 50.6663C27.8441 50.5198 28.0428 50.4375 28.25 50.4375H32.1562C32.5708 50.4375 32.9682 50.2729 33.2612 49.9799C33.5542 49.6868 33.7188 49.2894 33.7188 48.875V30.125C33.7188 29.7106 33.5542 29.3132 33.2612 29.0201C32.9682 28.7271 32.5707 28.5625 32.1562 28.5625H28.25C28.0428 28.5625 27.8441 28.4802 27.6976 28.3337C27.5511 28.1872 27.4688 27.9885 27.4688 27.7812C27.4688 27.574 27.5511 27.3753 27.6976 27.2288C27.8441 27.0823 28.0428 27 28.25 27H32.1562C32.9851 27 33.78 27.3292 34.3661 27.9153C34.9521 28.5013 35.2812 29.2962 35.2812 30.125V48.875C35.2812 49.7038 34.9521 50.4987 34.3661 51.0847C33.78 51.6708 32.9851 52 32.1562 52H28.25C28.0428 52 27.8441 51.9177 27.6976 51.7712C27.5511 51.6247 27.4688 51.426 27.4688 51.2188Z" fill="white"/>
<path d="M30.5219 40.0531C30.5946 39.9805 30.6524 39.8943 30.6917 39.7994C30.7311 39.7045 30.7514 39.6028 30.7514 39.5C30.7514 39.3972 30.7311 39.2955 30.6917 39.2006C30.6524 39.1056 30.5946 39.0194 30.5219 38.9469L25.8344 34.2594C25.6877 34.1127 25.4887 34.0303 25.2812 34.0303C25.0738 34.0303 24.8748 34.1127 24.7281 34.2594C24.5814 34.4061 24.499 34.605 24.499 34.8125C24.499 35.02 24.5814 35.2189 24.7281 35.3656L28.0828 38.7187H14.3437C14.1365 38.7187 13.9378 38.801 13.7913 38.9476C13.6448 39.0941 13.5625 39.2928 13.5625 39.5C13.5625 39.7072 13.6448 39.9059 13.7913 40.0524C13.9378 40.1989 14.1365 40.2812 14.3437 40.2812H28.0828L24.7281 43.6344C24.5814 43.7811 24.499 43.98 24.499 44.1875C24.499 44.395 24.5814 44.5939 24.7281 44.7406C24.8748 44.8873 25.0738 44.9697 25.2812 44.9697C25.4887 44.9697 25.6877 44.8873 25.8344 44.7406L30.5219 40.0531Z" fill="white"/>
<path d="M22.0312 286.93C23.224 286.93 24.138 287.32 24.7734 288.102C25.4089 288.883 25.7266 289.995 25.7266 291.437L25.7266 292.625L30 292.625L30 294.492L18.5781 294.492L18.5781 291.203C18.5781 289.776 18.8698 288.708 19.4531 288C20.0365 287.286 20.8958 286.93 22.0312 286.93ZM24.1562 292.625L24.1562 291.633C24.1562 290.674 23.9896 289.971 23.6562 289.523C23.3229 289.076 22.8021 288.852 22.0937 288.852C21.4375 288.852 20.9479 289.052 20.625 289.453C20.3021 289.854 20.1406 290.479 20.1406 291.328L20.1406 292.625L24.1562 292.625ZM25.6641 277.18C27.0755 277.18 28.1771 277.542 28.9687 278.266C29.7604 278.99 30.1562 279.997 30.1562 281.289C30.1562 282.096 29.974 282.81 29.6094 283.43C29.2448 284.049 28.7214 284.526 28.0391 284.859C27.3568 285.193 26.5651 285.359 25.6641 285.359C24.263 285.359 23.1693 285 22.3828 284.281C21.5964 283.562 21.2031 282.549 21.2031 281.242C21.2031 279.992 21.6068 279.003 22.4141 278.273C23.2161 277.544 24.2995 277.18 25.6641 277.18ZM25.6641 283.469C27.6589 283.469 28.6562 282.732 28.6562 281.258C28.6562 279.799 27.6589 279.07 25.6641 279.07C23.6901 279.07 22.7031 279.805 22.7031 281.273C22.7031 282.044 22.9583 282.604 23.4687 282.953C23.9792 283.297 24.7109 283.469 25.6641 283.469ZM21.2031 270.648C21.2031 269.57 21.5937 268.732 22.375 268.133C23.1562 267.529 24.2526 267.227 25.6641 267.227C27.0807 267.227 28.1849 267.531 28.9766 268.141C29.763 268.75 30.1562 269.596 30.1562 270.68C30.1562 271.773 29.763 272.622 28.9766 273.227L28.9766 273.352L30 273.687L30 275.062L17.8437 275.062L17.8437 273.227L20.7344 273.227C20.9479 273.227 21.2656 273.237 21.6875 273.258C22.1094 273.279 22.3776 273.294 22.4922 273.305L22.4922 273.227C21.6328 272.643 21.2031 271.784 21.2031 270.648ZM22.7031 271.125C22.7031 271.865 22.9219 272.398 23.3594 272.727C23.7917 273.049 24.5182 273.216 25.5391 273.227L25.6641 273.227C26.7161 273.227 27.4792 273.06 27.9531 272.727C28.4219 272.393 28.6562 271.849 28.6562 271.094C28.6562 270.443 28.3984 269.951 27.8828 269.617C27.3672 269.279 26.6224 269.109 25.6484 269.109C23.6849 269.109 22.7031 269.781 22.7031 271.125ZM30 263.258L30 265.094L21.3594 265.094L21.3594 263.258L30 263.258ZM19.0703 265.203C18.7422 265.203 18.4896 265.115 18.3125 264.937C18.1354 264.755 18.0469 264.497 18.0469 264.164C18.0469 263.841 18.1354 263.591 18.3125 263.414C18.4896 263.232 18.7422 263.141 19.0703 263.141C19.3828 263.141 19.6302 263.232 19.8125 263.414C19.9896 263.591 20.0781 263.841 20.0781 264.164C20.0781 264.497 19.9896 264.755 19.8125 264.937C19.6302 265.115 19.3828 265.203 19.0703 265.203ZM30.1562 256.852C30.1562 258.195 29.7656 259.247 28.9844 260.008C28.1979 260.763 27.1172 261.141 25.7422 261.141C24.3307 261.141 23.2214 260.789 22.4141 260.086C21.6068 259.383 21.2031 258.417 21.2031 257.187C21.2031 256.047 21.5495 255.146 22.2422 254.484C22.9349 253.823 23.888 253.492 25.1016 253.492L26.0937 253.492L26.0937 259.25C26.9323 259.224 27.5781 258.997 28.0312 258.57C28.4792 258.143 28.7031 257.542 28.7031 256.766C28.7031 256.255 28.6562 255.781 28.5625 255.344C28.4635 254.901 28.3021 254.427 28.0781 253.922L29.5703 253.922C29.7839 254.37 29.9349 254.823 30.0234 255.281C30.112 255.74 30.1562 256.263 30.1562 256.852ZM22.5937 257.187C22.5937 257.771 22.7786 258.24 23.1484 258.594C23.5182 258.943 24.0573 259.151 24.7656 259.219L24.7656 255.297C24.0521 255.307 23.513 255.479 23.1484 255.812C22.7786 256.146 22.5937 256.604 22.5937 257.187ZM21.2031 247.023C21.2031 246.654 21.2292 246.349 21.2812 246.109L22.9922 246.289C22.9297 246.549 22.8984 246.82 22.8984 247.102C22.8984 247.836 23.138 248.432 23.6172 248.891C24.0964 249.344 24.7187 249.57 25.4844 249.57L30 249.57L30 251.406L21.3594 251.406L21.3594 249.969L22.8828 249.727L22.8828 249.633C22.3672 249.346 21.9583 248.974 21.6562 248.516C21.3542 248.052 21.2031 247.555 21.2031 247.023ZM30 238.727L30 245.281L28.8672 245.281L22.7656 240.914L22.7656 245.016L21.3594 245.016L21.3594 238.852L22.6406 238.852L28.5937 243.125L28.5937 238.727L30 238.727ZM21.2031 228.273C21.2031 227.195 21.5937 226.357 22.375 225.758C23.1562 225.154 24.2526 224.852 25.6641 224.852C27.0807 224.852 28.1849 225.156 28.9766 225.766C29.763 226.375 30.1562 227.221 30.1562 228.305C30.1562 229.398 29.763 230.247 28.9766 230.852L28.9766 230.977L30 231.312L30 232.687L17.8437 232.687L17.8437 230.852L20.7344 230.852C20.9479 230.852 21.2656 230.862 21.6875 230.883C22.1094 230.904 22.3776 230.919 22.4922 230.93L22.4922 230.852C21.6328 230.268 21.2031 229.409 21.2031 228.273ZM22.7031 228.75C22.7031 229.49 22.9219 230.023 23.3594 230.352C23.7917 230.674 24.5182 230.841 25.5391 230.852L25.6641 230.852C26.7161 230.852 27.4792 230.685 27.9531 230.352C28.4219 230.018 28.6562 229.474 28.6562 228.719C28.6562 228.068 28.3984 227.576 27.8828 227.242C27.3672 226.904 26.6224 226.734 25.6484 226.734C23.6849 226.734 22.7031 227.406 22.7031 228.75ZM30.1562 218.945C30.1562 220.289 29.7656 221.341 28.9844 222.102C28.1979 222.857 27.1172 223.234 25.7422 223.234C24.3307 223.234 23.2214 222.883 22.4141 222.18C21.6068 221.477 21.2031 220.51 21.2031 219.281C21.2031 218.141 21.5495 217.24 22.2422 216.578C22.9349 215.917 23.888 215.586 25.1016 215.586L26.0937 215.586L26.0937 221.344C26.9323 221.318 27.5781 221.091 28.0312 220.664C28.4792 220.237 28.7031 219.635 28.7031 218.859C28.7031 218.349 28.6562 217.875 28.5625 217.437C28.4635 216.995 28.3021 216.521 28.0781 216.016L29.5703 216.016C29.7839 216.464 29.9349 216.917 30.0234 217.375C30.112 217.833 30.1562 218.357 30.1562 218.945ZM22.5937 219.281C22.5937 219.865 22.7786 220.333 23.1484 220.687C23.5182 221.036 24.0573 221.245 24.7656 221.312L24.7656 217.391C24.0521 217.401 23.513 217.573 23.1484 217.906C22.7786 218.24 22.5937 218.698 22.5937 219.281ZM30 207.727L30 214.281L28.8672 214.281L22.7656 209.914L22.7656 214.016L21.3594 214.016L21.3594 207.852L22.6406 207.852L28.5937 212.125L28.5937 207.727L30 207.727ZM30.1562 201.461C30.1562 202.555 29.763 203.404 28.9766 204.008L28.9766 204.117C29.7057 204.044 30.1484 204.008 30.3047 204.008L33.8437 204.008L33.8437 205.844L21.3594 205.844L21.3594 204.359C21.5208 204.318 21.9062 204.232 22.5156 204.102L22.5156 204.008C21.6406 203.435 21.2031 202.576 21.2031 201.43C21.2031 200.352 21.5937 199.513 22.375 198.914C23.1562 198.31 24.2526 198.008 25.6641 198.008C27.0755 198.008 28.1771 198.315 28.9687 198.93C29.7604 199.539 30.1562 200.383 30.1562 201.461ZM22.7031 201.906C22.7031 202.635 22.9167 203.169 23.3437 203.508C23.7708 203.841 24.4531 204.008 25.3906 204.008L25.6641 204.008C26.7161 204.008 27.4792 203.841 27.9531 203.508C28.4219 203.174 28.6562 202.63 28.6562 201.875C28.6562 201.24 28.3958 200.75 27.875 200.406C27.3542 200.062 26.612 199.891 25.6484 199.891C24.6797 199.891 23.9479 200.062 23.4531 200.406C22.9531 200.745 22.7031 201.245 22.7031 201.906ZM22.9922 193.937L22.4609 193.141L23.6641 192.406L24.6562 193.937L30 193.937L30 195.781L25.8047 195.781L26.2578 196.5L25.0547 197.203L24.1406 195.781L17.8437 195.781L17.8437 193.937L22.9922 193.937ZM30 185.75L28.7969 186.117L28.7969 186.18C29.3229 186.596 29.6823 187.016 29.875 187.437C30.0625 187.859 30.1562 188.401 30.1562 189.062C30.1562 189.911 29.9271 190.576 29.4687 191.055C29.0104 191.529 28.362 191.766 27.5234 191.766C26.6328 191.766 25.9609 191.435 25.5078 190.773C25.0547 190.112 24.8073 189.104 24.7656 187.75L24.7187 186.258L24.2578 186.258C23.7057 186.258 23.2943 186.388 23.0234 186.648C22.7474 186.904 22.6094 187.302 22.6094 187.844C22.6094 188.286 22.6745 188.711 22.8047 189.117C22.9349 189.523 23.0885 189.914 23.2656 190.289L21.9531 190.883C21.7083 190.414 21.5234 189.901 21.3984 189.344C21.2682 188.786 21.2031 188.26 21.2031 187.766C21.2031 186.667 21.4427 185.839 21.9219 185.281C22.401 184.719 23.1536 184.437 24.1797 184.437L30 184.437L30 185.75ZM28.75 188.484C28.75 187.818 28.5651 187.284 28.1953 186.883C27.8203 186.477 27.2969 186.273 26.625 186.273L25.875 186.273L25.9219 187.383C25.9531 188.247 26.099 188.878 26.3594 189.273C26.6146 189.664 27.0078 189.859 27.5391 189.859C27.9245 189.859 28.224 189.745 28.4375 189.516C28.6458 189.286 28.75 188.943 28.75 188.484ZM28.6719 178.656C28.6719 178.208 28.6016 177.76 28.4609 177.312L29.8437 177.312C29.9323 177.516 30.0052 177.779 30.0625 178.102C30.125 178.419 30.1562 178.75 30.1562 179.094C30.1562 180.833 29.2396 181.703 27.4062 181.703L22.75 181.703L22.75 182.883L21.9375 182.883L21.2656 181.617L19.4375 180.992L19.4375 179.859L21.3594 179.859L21.3594 177.398L22.75 177.398L22.75 179.859L27.375 179.859C27.8177 179.859 28.1458 179.75 28.3594 179.531C28.5677 179.307 28.6719 179.016 28.6719 178.656ZM30 167.977L30 169.82L24.6875 169.82C24.0208 169.82 23.5234 169.956 23.1953 170.227C22.8672 170.492 22.7031 170.917 22.7031 171.5C22.7031 172.276 22.9323 172.844 23.3906 173.203C23.849 173.562 24.6172 173.742 25.6953 173.742L30 173.742L30 175.578L21.3594 175.578L21.3594 174.141L22.4922 173.883L22.4922 173.789C22.0807 173.529 21.763 173.159 21.5391 172.68C21.3151 172.201 21.2031 171.669 21.2031 171.086C21.2031 169.013 22.2578 167.977 24.3672 167.977L30 167.977ZM30.1562 161.648C30.1562 162.992 29.7656 164.044 28.9844 164.805C28.1979 165.56 27.1172 165.937 25.7422 165.937C24.3307 165.937 23.2213 165.586 22.4141 164.883C21.6068 164.18 21.2031 163.214 21.2031 161.984C21.2031 160.844 21.5495 159.943 22.2422 159.281C22.9349 158.62 23.888 158.289 25.1016 158.289L26.0937 158.289L26.0937 164.047C26.9323 164.021 27.5781 163.794 28.0312 163.367C28.4792 162.94 28.7031 162.339 28.7031 161.562C28.7031 161.052 28.6562 160.578 28.5625 160.141C28.4635 159.698 28.3021 159.224 28.0781 158.719L29.5703 158.719C29.7838 159.167 29.9349 159.62 30.0234 160.078C30.112 160.536 30.1562 161.06 30.1562 161.648ZM22.5937 161.984C22.5937 162.568 22.7786 163.036 23.1484 163.391C23.5182 163.74 24.0573 163.948 24.7656 164.016L24.7656 160.094C24.0521 160.104 23.513 160.276 23.1484 160.609C22.7786 160.943 22.5937 161.401 22.5937 161.984ZM30 144.766L30 146.609L24.6719 146.609C24.0104 146.609 23.5182 146.734 23.1953 146.984C22.8672 147.234 22.7031 147.625 22.7031 148.156C22.7031 148.865 22.9349 149.385 23.3984 149.719C23.8568 150.047 24.6224 150.211 25.6953 150.211L30 150.211L30 152.047L21.3594 152.047L21.3594 150.609L22.4922 150.352L22.4922 150.258C22.0807 150.018 21.763 149.672 21.5391 149.219C21.3151 148.76 21.2031 148.258 21.2031 147.711C21.2031 146.383 21.6562 145.503 22.5625 145.07L22.5625 144.945C22.1354 144.69 21.8021 144.331 21.5625 143.867C21.3229 143.404 21.2031 142.872 21.2031 142.273C21.2031 141.242 21.4635 140.492 21.9844 140.023C22.5052 139.549 23.2995 139.312 24.3672 139.312L30 139.312L30 141.148L24.6719 141.148C24.0104 141.148 23.5182 141.276 23.1953 141.531C22.8672 141.781 22.7031 142.172 22.7031 142.703C22.7031 143.417 22.9271 143.94 23.375 144.273C23.8177 144.602 24.5 144.766 25.4219 144.766L30 144.766ZM30 131.344L28.7969 131.711L28.7969 131.773C29.3229 132.19 29.6823 132.609 29.875 133.031C30.0625 133.453 30.1562 133.995 30.1562 134.656C30.1562 135.505 29.9271 136.169 29.4687 136.648C29.0104 137.122 28.362 137.359 27.5234 137.359C26.6328 137.359 25.9609 137.029 25.5078 136.367C25.0547 135.706 24.8073 134.698 24.7656 133.344L24.7187 131.852L24.2578 131.852C23.7057 131.852 23.2943 131.982 23.0234 132.242C22.7474 132.497 22.6094 132.896 22.6094 133.437C22.6094 133.88 22.6745 134.305 22.8047 134.711C22.9349 135.117 23.0885 135.508 23.2656 135.883L21.9531 136.477C21.7083 136.008 21.5234 135.495 21.3984 134.937C21.2682 134.38 21.2031 133.854 21.2031 133.359C21.2031 132.26 21.4427 131.432 21.9219 130.875C22.401 130.312 23.1536 130.031 24.1797 130.031L30 130.031L30 131.344ZM28.75 134.078C28.75 133.411 28.5651 132.878 28.1953 132.477C27.8203 132.07 27.2969 131.867 26.625 131.867L25.875 131.867L25.9219 132.977C25.9531 133.841 26.099 134.471 26.3594 134.867C26.6146 135.258 27.0078 135.453 27.5391 135.453C27.9245 135.453 28.224 135.339 28.4375 135.109C28.6458 134.88 28.75 134.536 28.75 134.078ZM28.6719 124.25C28.6719 123.802 28.6016 123.354 28.4609 122.906L29.8437 122.906C29.9323 123.109 30.0052 123.372 30.0625 123.695C30.125 124.013 30.1562 124.344 30.1562 124.687C30.1562 126.427 29.2396 127.297 27.4062 127.297L22.75 127.297L22.75 128.477L21.9375 128.477L21.2656 127.211L19.4375 126.586L19.4375 125.453L21.3594 125.453L21.3594 122.992L22.75 122.992L22.75 125.453L27.375 125.453C27.8177 125.453 28.1458 125.344 28.3594 125.125C28.5677 124.901 28.6719 124.609 28.6719 124.25ZM30.1562 117.398C30.1562 118.742 29.7656 119.794 28.9844 120.555C28.1979 121.31 27.1172 121.687 25.7422 121.687C24.3307 121.687 23.2213 121.336 22.4141 120.633C21.6068 119.93 21.2031 118.964 21.2031 117.734C21.2031 116.594 21.5495 115.693 22.2422 115.031C22.9349 114.37 23.888 114.039 25.1016 114.039L26.0937 114.039L26.0937 119.797C26.9323 119.771 27.5781 119.544 28.0312 119.117C28.4792 118.69 28.7031 118.089 28.7031 117.312C28.7031 116.802 28.6562 116.328 28.5625 115.891C28.4635 115.448 28.3021 114.974 28.0781 114.469L29.5703 114.469C29.7838 114.917 29.9349 115.37 30.0234 115.828C30.112 116.286 30.1562 116.81 30.1562 117.398ZM22.5937 117.734C22.5937 118.318 22.7786 118.786 23.1484 119.141C23.5182 119.49 24.0573 119.698 24.7656 119.766L24.7656 115.844C24.0521 115.854 23.513 116.026 23.1484 116.359C22.7786 116.693 22.5937 117.151 22.5937 117.734ZM21.2031 107.57C21.2031 107.201 21.2292 106.896 21.2812 106.656L22.9922 106.836C22.9297 107.096 22.8984 107.367 22.8984 107.648C22.8984 108.383 23.138 108.979 23.6172 109.437C24.0963 109.891 24.7187 110.117 25.4844 110.117L30 110.117L30 111.953L21.3594 111.953L21.3594 110.516L22.8828 110.273L22.8828 110.18C22.3672 109.893 21.9583 109.521 21.6562 109.062C21.3542 108.599 21.2031 108.102 21.2031 107.57ZM30 103.211L30 105.047L21.3594 105.047L21.3594 103.211L30 103.211ZM19.0703 105.156C18.7422 105.156 18.4896 105.068 18.3125 104.891C18.1354 104.708 18.0469 104.451 18.0469 104.117C18.0469 103.794 18.1354 103.544 18.3125 103.367C18.4896 103.185 18.7422 103.094 19.0703 103.094C19.3828 103.094 19.6302 103.185 19.8125 103.367C19.9896 103.544 20.0781 103.794 20.0781 104.117C20.0781 104.451 19.9896 104.708 19.8125 104.891C19.6302 105.068 19.3828 105.156 19.0703 105.156ZM30 95.1719L28.7969 95.5391L28.7969 95.6016C29.3229 96.0182 29.6823 96.4375 29.875 96.8594C30.0625 97.2812 30.1562 97.8229 30.1562 98.4844C30.1562 99.3333 29.9271 99.9974 29.4687 100.477C29.0104 100.951 28.362 101.187 27.5234 101.187C26.6328 101.187 25.9609 100.857 25.5078 100.195C25.0547 99.5339 24.8073 98.526 24.7656 97.1719L24.7187 95.6797L24.2578 95.6797C23.7057 95.6797 23.2943 95.8099 23.0234 96.0703C22.7474 96.3255 22.6094 96.724 22.6094 97.2656C22.6094 97.7083 22.6745 98.1328 22.8047 98.5391C22.9349 98.9453 23.0885 99.3359 23.2656 99.7109L21.9531 100.305C21.7083 99.8359 21.5234 99.3229 21.3984 98.7656C21.2682 98.2083 21.2031 97.6823 21.2031 97.1875C21.2031 96.0885 21.4427 95.2604 21.9219 94.7031C22.401 94.1406 23.1536 93.8594 24.1797 93.8594L30 93.8594L30 95.1719ZM28.75 97.9062C28.75 97.2396 28.5651 96.7057 28.1953 96.3047C27.8203 95.8984 27.2969 95.6953 26.625 95.6953L25.875 95.6953L25.9219 96.8047C25.9531 97.6693 26.0989 98.2995 26.3594 98.6953C26.6146 99.0859 27.0078 99.2812 27.5391 99.2812C27.9245 99.2812 28.2239 99.1667 28.4375 98.9375C28.6458 98.7083 28.75 98.3646 28.75 97.9062ZM22.9922 89.3594L22.4609 88.5625L23.6641 87.8281L24.6562 89.3594L30 89.3594L30 91.2031L25.8047 91.2031L26.2578 91.9219L25.0547 92.625L24.1406 91.2031L17.8437 91.2031L17.8437 89.3594L22.9922 89.3594ZM21.3594 87.8906L21.3594 85.8906L26.2578 84.1328C26.9557 83.8672 27.612 83.6901 28.2266 83.6016L28.2266 83.5391C27.9401 83.4922 27.5937 83.4062 27.1875 83.2812C26.776 83.1562 24.8333 82.4948 21.3594 81.2969L21.3594 79.3125L31.1484 83.0078C32.9453 83.6797 33.8437 84.7995 33.8437 86.3672C33.8437 86.7734 33.7995 87.1693 33.7109 87.5547L32.2578 87.5547C32.3203 87.2786 32.3516 86.9635 32.3516 86.6094C32.3516 85.724 31.8385 85.1016 30.8125 84.7422L30 84.4219L21.3594 87.8906Z" fill="white"/>
</svg>
